<?xml version="1.0" encoding="UTF-8" standalone="no"?>
<!-- Created with Inkscape (http://www.inkscape.org/) -->

<svg
   xmlns:dc="http://purl.org/dc/elements/1.1/"
   xmlns:cc="http://creativecommons.org/ns#"
   xmlns:rdf="http://www.w3.org/1999/02/22-rdf-syntax-ns#"
   xmlns:svg="http://www.w3.org/2000/svg"
   xmlns="http://www.w3.org/2000/svg"
   xmlns:sodipodi="http://sodipodi.sourceforge.net/DTD/sodipodi-0.dtd"
   xmlns:inkscape="http://www.inkscape.org/namespaces/inkscape"
   width="432.0379mm"
   height="432.1792mm"
   viewBox="0 0 432.0379 432.1792"
   version="1.1"
   id="svg8"
   inkscape:version="0.92.4 (5da689c313, 2019-01-14)"
   sodipodi:docname="table_ver1.svg">
  <defs
     id="defs2" />
  <sodipodi:namedview
     id="base"
     pagecolor="#ffffff"
     bordercolor="#666666"
     borderopacity="1.0"
     inkscape:pageopacity="0.0"
     inkscape:pageshadow="2"
     inkscape:zoom="0.35"
     inkscape:cx="692.96632"
     inkscape:cy="908.55426"
     inkscape:document-units="mm"
     inkscape:current-layer="layer1"
     showgrid="false"
     inkscape:snap-grids="true"
     showguides="false"
     inkscape:snap-nodes="false"
     inkscape:window-width="1920"
     inkscape:window-height="1017"
     inkscape:window-x="-8"
     inkscape:window-y="-8"
     inkscape:window-maximized="1">
    <inkscape:grid
       type="xygrid"
       id="grid4591"
       originx="-0.43424037"
       originy="-0.41891489" />
  </sodipodi:namedview>
  <metadata
     id="metadata5">
    <rdf:RDF>
      <cc:Work
         rdf:about="">
        <dc:format>image/svg+xml</dc:format>
        <dc:type
           rdf:resource="http://purl.org/dc/dcmitype/StillImage" />
        <dc:title></dc:title>
      </cc:Work>
    </rdf:RDF>
  </metadata>
  <g
     inkscape:label="Layer 1"
     inkscape:groupmode="layer"
     id="layer1"
     transform="translate(-52.247439,273.96787)">
    <path
       style="fill:#8b4513;fill-opacity:1;stroke:#000000;stroke-width:1.21194255px;stroke-linecap:butt;stroke-linejoin:miter;stroke-opacity:0.46376815"
       d="M 53.288227,-146.92774 V 31.167743 L 121.22483,-1.6106809 V -115.29404 Z"
       id="path4691"
       inkscape:connector-curvature="0" />
    <path
       style="fill:#8b4513;fill-opacity:1;stroke:#000000;stroke-width:1.21194255px;stroke-linecap:butt;stroke-linejoin:miter;stroke-opacity:0.41545895"
       d="m 179.22075,-272.86027 -125.932523,125.93253 67.936603,31.6337 86.47147,-80.38628 z"
       id="path4689"
       inkscape:connector-curvature="0" />
    <path
       style="fill:#8b4513;fill-opacity:1;stroke:#000000;stroke-width:1.21194255px;stroke-linecap:butt;stroke-linejoin:miter;stroke-opacity:0.38164254"
       d="m 179.22075,-272.86027 28.47555,77.17995 h 122.28912 l 27.3308,-77.17995 z"
       id="path4687"
       inkscape:connector-curvature="0" />
    <path
       style="fill:#8b4513;fill-opacity:1;stroke:#000000;stroke-width:1.21194255px;stroke-linecap:butt;stroke-linejoin:miter;stroke-opacity:0.5120773"
       d="m 329.98542,-195.68032 27.3308,-77.17995 125.93257,125.93253 -66.79186,31.6337 z"
       id="path4685"
       inkscape:connector-curvature="0" />
    <path
       style="fill:#8b4513;fill-opacity:1;stroke:#000000;stroke-width:1.21194255px;stroke-linecap:butt;stroke-linejoin:miter;stroke-opacity:0.45893722"
       d="M 416.45693,-115.29404 V -1.6106809 L 483.24879,31.167743 V -146.92774 Z"
       id="path4683"
       inkscape:connector-curvature="0" />
    <path
       style="fill:#8b4513;fill-opacity:1;stroke:#000000;stroke-width:1.21194255px;stroke-linecap:butt;stroke-linejoin:miter;stroke-opacity:0.5362319"
       d="m 329.98542,78.77558 27.3308,78.32468 L 483.24879,31.167743 416.45688,-1.6106809 Z"
       id="path4681"
       inkscape:connector-curvature="0" />
    <path
       style="fill:#8b4513;fill-opacity:1;stroke:#000000;stroke-width:1.21194255px;stroke-linecap:butt;stroke-linejoin:miter;stroke-opacity:0.30434798"
       d="M 179.22075,157.10026 207.6963,78.77558 121.22483,-1.6106809 53.288227,31.167743 Z"
       id="path4679"
       inkscape:connector-curvature="0" />
    <path
       style="fill:#8b4513;fill-opacity:1;stroke:#000000;stroke-width:1.21194255px;stroke-linecap:butt;stroke-linejoin:miter;stroke-opacity:0.40579708"
       d="m 207.6963,78.77558 -28.47555,78.32468 h 178.09547 l -27.3308,-78.32468 z"
       id="path4677"
       inkscape:connector-curvature="0" />
    <path
       style="fill:none;stroke:#000000;stroke-width:1.21194255px;stroke-linecap:butt;stroke-linejoin:miter;stroke-opacity:0.21256038"
       d="m 207.6963,78.77558 -28.47555,78.32468 h 178.09547 l -27.3308,-78.32468 z"
       id="path4639"
       inkscape:connector-curvature="0" />
    <polygon
       id="polygon4542"
       points="63.26239,11.307565 136.73761,11.307565 188.69244,63.26239 188.69244,136.73761 136.73761,188.69244 63.26239,188.69244 11.307565,136.73761 11.307565,63.26239 "
       style="fill:none;stroke:#000000;stroke-width:0.79937005;stroke-miterlimit:4;stroke-dasharray:none"
       transform="matrix(2.4238851,0,0,2.4238851,25.879986,-300.26851)" />
    <g
       id="g4647"
       transform="matrix(4.5805703,0,0,4.5805703,-187.07563,-566.48689)">
      <polygon
         transform="matrix(0.36335187,0,0,0.33778198,63.197504,77.13256)"
         style="fill:none;stroke:#a0522d;stroke-width:1.35870445;stroke-miterlimit:4;stroke-dasharray:none;stroke-opacity:1"
         points="63.26239,11.307565 136.73761,11.307565 188.69244,63.26239 188.69244,136.73761 136.73761,188.69244 63.26239,188.69244 11.307565,136.73761 11.307565,63.26239 "
         id="polygon4542-3" />
      <path
         sodipodi:nodetypes="ccccccccc"
         inkscape:connector-curvature="0"
         id="path4621"
         d="m 56.855328,224.61327 c 1.550808,-31.27705 0.708312,-62.52359 0,-93.8026 25.050359,-20.76608 48.129542,-43.589522 71.349482,-66.328456 33.41537,1.201717 67.47399,-10e-7 100.9034,-10e-7 25.03859,24.539269 46.98126,44.824877 71.34949,66.328457 -1.62203,31.27808 -0.7415,62.52241 0,93.8026 -21.0468,19.83677 -49.045,43.45062 -71.34949,66.32844 -33.64278,-1.51655 -67.25887,-0.69226 -100.9034,2e-5 -22.53769,-23.46867 -46.981777,-44.82434 -71.349482,-66.32846 z"
         style="fill:#61ae9a;fill-opacity:1;stroke:#a0522d;stroke-width:1.28503931;stroke-miterlimit:4;stroke-dasharray:none;stroke-opacity:1"
         transform="matrix(0.26458333,0,0,0.26458333,52.263157,63.891133)" />
    </g>
    <path
       id="path6433"
       d="m 211.37123,-68.936621 c -7.55786,7.72156 -0.20724,13.345354 5.76856,9.65873 0.0326,1.901775 -1.45857,3.677253 -2.37576,5.37497 h 6.45192 c -0.9446,-1.650022 -2.52188,-3.467627 -2.57955,-5.37497 6.10096,3.504754 12.58925,-2.60701 5.81963,-9.65873 -3.52994,-3.87279 -5.73643,-6.88612 -6.56802,-7.91041 -0.75854,0.99873 -2.7792,3.93547 -6.51692,7.91041 z"
       inkscape:connector-curvature="0"
       style="fill:#3cae9a;fill-opacity:1;fill-rule:evenodd;stroke:none;stroke-width:0.05297984pt" />
    <g
       transform="matrix(0.16516647,0,0,0.16516647,238.35744,-222.19107)"
       id="layer1-3"
       inkscape:label="Layer 1"
       style="fill:#3cae9a;fill-opacity:1">
      <path
         inkscape:connector-curvature="0"
         id="path5865"
         d="M 51.931374,1027.3356 C 47.139277,1012.5493 39.717463,1000.5864 13.766439,965.81962 -2.0599265,944.6169 -7.9577355,934.36254 -9.8881125,924.69211 c -2.3440105,-11.74257 1.196833,-22.934 9.66489397,-30.54751 5.69391303,-5.11932 11.60839853,-7.31434 19.70852853,-7.31434 13.35413,0 24.173768,7.64475 30.646178,21.65344 1.853077,4.01074 3.699135,6.9191 4.10235,6.46303 0.403216,-0.45608 1.467487,-2.76806 2.365047,-5.13774 3.890151,-10.27052 12.753803,-19.15322 21.999836,-22.0471 6.268975,-1.96211 17.496565,-0.79433 23.434339,2.43742 16.5279,8.9956 20.13184,28.66056 9.23263,50.37797 -4.28341,8.53497 -8.26314,14.35165 -21.472464,31.38367 -18.465777,23.80963 -29.595326,41.93515 -34.001621,55.37465 -0.906412,2.7646 -1.779228,5.0266 -1.939592,5.0266 -0.160363,0 -1.024651,-2.262 -1.920639,-5.0266 z"
         style="fill:#3cae9a;fill-opacity:1;stroke:none" />
    </g>
    <g
       transform="matrix(0.18178805,0,0,0.18178805,265.34995,-239.71907)"
       id="layer1-7"
       inkscape:label="Layer 1"
       style="fill:#3cae9a;fill-opacity:1">
      <path
         sodipodi:nodetypes="ccssssssssssscsaasaasssscssssssscsc"
         inkscape:connector-curvature="0"
         id="path5891"
         d="m 33.57277,1031.6441 c 0.0435,-2.1326 2.41976,-3.3889 10.49989,-5.5512 12.14507,-3.2503 16.36065,-5.2676 21.9679,-10.5125 9.82494,-9.1901 15.25562,-21.22154 15.97824,-35.39913 0.36906,-7.24076 0.24246,-8.32449 -0.79266,-6.78544 -0.67753,1.00737 -2.97792,4.45418 -5.11199,7.65957 -7.97032,11.97146 -22.45213,19.5535 -35.36758,18.51676 -11.83058,-0.9496 -22.13911,-8.0757 -27.153181,-18.7705 C 11.408457,976.14131 9.9993832,974.1371 10,966.29829 c 5.75e-4,-7.29956 1.467962,-9.97978 3.127761,-13.57245 2.811689,-6.08595 9.305249,-12.90321 15.075899,-15.82742 4.21005,-2.1334 5.63196,-2.36479 12.00652,-1.95387 4.40788,0.28415 9.05935,1.27178 11.91429,2.52974 2.57586,1.13499 4.86604,1.88096 5.08928,1.65771 0.22325,-0.22324 -1.01801,-3.14232 -2.75836,-6.48683 -2.89215,-5.55798 -3.613547,-9.70494 -3.17439,-14.69794 0.715189,-8.13136 3.33033,-17.06576 9.26858,-22.66644 6.210544,-5.8575 13.15934,-8.70278 24.23193,-8.29118 10.30158,0.38295 16.28183,3.51796 21.8449,9.11271 5.44231,5.4733 8.15044,13.72926 8.79339,21.42097 0.42932,5.136 -0.30242,8.80285 -3.41548,15.07978 -1.87851,3.78769 -3.11542,6.88671 -2.74868,6.88671 0.36674,0 3.19626,-1.17617 6.28782,-2.61372 14.45758,-6.72263 31.03576,-0.21065 38.04272,14.94333 1.68146,3.63649 3.04501,6.21845 3.03882,14.4789 -0.007,8.74854 -1.3142,10.67446 -3.37074,14.84042 -6.50325,13.17365 -21.57941,20.77499 -35.34793,17.82215 -11.72207,-2.5139 -21.58027,-9.5882 -28.79683,-20.66458 -2.24081,-3.43932 -4.2733,-6.25331 -4.51666,-6.25331 -0.70681,0 0.71696,12.36855 2.17672,18.90959 2.84299,12.73914 11.304859,24.30404 22.0274,30.10484 4.10231,2.2193 12.45749,4.8896 21.58822,6.8996 1.4227,0.3132 2.73765,1.3922 3.02207,2.4798 0.49967,1.9108 0.12309,1.9254 -49.67283,1.9254 -27.59697,0 -50.16972,-0.3231 -50.16165,-0.7181 z"
         style="fill:#3cae9a;fill-opacity:1;stroke:none" />
    </g>
    <g
       transform="matrix(0.20280784,0,0,0.20280784,289.36833,-259.41185)"
       id="layer1-6"
       inkscape:label="Layer 1"
       style="fill:#3cae9a;fill-opacity:1">
      <path
         inkscape:connector-curvature="0"
         id="path5878"
         d="m 131.11875,1027.67 c -5.54127,-9.3775 -23.81536,-34.5652 -37.296869,-51.40728 -6.776523,-8.46573 -12.320951,-15.70775 -12.320951,-16.09337 0,-0.38562 2.498012,-3.68932 5.551138,-7.34155 14.779122,-17.67921 34.688972,-44.7342 42.813132,-58.17773 2.49107,-4.12211 4.83603,-7.13807 5.21103,-6.70213 0.375,0.43594 3.91138,5.74741 7.85862,11.80326 8.61773,13.22128 27.37269,38.4164 38.04969,51.11535 l 7.73836,9.2038 -7.73836,9.2038 c -14.03521,16.69312 -34.03523,44.26125 -44.48971,61.32495 l -1.8556,3.0286 z"
         style="fill:#3cae9a;fill-opacity:1;stroke:none" />
    </g>
  </g>
</svg>
